<svg xmlns="http://www.w3.org/2000/svg" width="400" height="401.67" viewBox="0 0 400 401.67">
  <g id="biohazard" transform="translate(-686 -321)">
    <g id="spacer" transform="translate(686 321)" fill="rgba(255,255,255,0)" stroke="rgba(0,0,0,0)" stroke-width="1">
      <rect width="400" height="401.67" stroke="none"/>
      <rect x="0.5" y="0.5" width="399" height="400.67" fill="none"/>
    </g>
    <g id="biohazard-2" data-name="biohazard" transform="translate(683.384 303.36)">
      <path id="パス_3" data-name="パス 3" d="M202.6,243.54a24.074,24.074,0,0,1-17.184-7.16l-14.483,8.2a85.956,85.956,0,0,1-19.614,102.73,90.115,90.115,0,0,1-106,10.33,109.4,109.4,0,0,0,85.818,18.679,107.709,107.709,0,0,0,71.452-50.239,107.708,107.708,0,0,0,71.438,50.257,109.4,109.4,0,0,0,85.822-18.656,90.115,90.115,0,0,1-106-10.358A85.956,85.956,0,0,1,234.267,244.59l-14.483-8.21a24.074,24.074,0,0,1-17.184,7.16Z" transform="translate(0 5.422)" fill="#fff"/>
      <path id="パス_4" data-name="パス 4" d="M343.79,181.23a105.26,105.26,0,0,0-52.33-14.18A105.75,105.75,0,0,0,241.67,17.64,87.13,87.13,0,0,1,205.35,180.9v16.42A23.37,23.37,0,0,1,222.2,226.5l14.22,8.21A87.12,87.12,0,0,1,396,284.89a105.73,105.73,0,0,0-52.21-103.66Z" transform="translate(5.922)" fill="#fff"/>
      <path id="パス_5" data-name="パス 5" d="M193.94,197.32V180.9A87.12,87.12,0,0,1,157.62,17.64,105.74,105.74,0,0,0,107.81,167,105.75,105.75,0,0,0,3.31,284.84,87.12,87.12,0,0,1,162.86,234.7l14.22-8.2a23.41,23.41,0,0,1,16.86-29.18Z" fill="#fff"/>
    </g>
  </g>
</svg>
