<svg xmlns="http://www.w3.org/2000/svg" width="128" height="128" viewBox="0 0 128 128">
  <g id="グループ_7" data-name="グループ 7" transform="translate(-1429 -750)">
    <rect id="長方形_1" data-name="長方形 1" width="128" height="128" transform="translate(1429 750)"/>
    <path id="パス_19" data-name="パス 19" d="M127.368,0h-1.789V1.788L113.342,14.026h-2.684L98.421,1.788V0H93.579V1.788L81.342,14.026H78.658L66.421,1.788V0H61.579V1.788L49.342,14.026H46.658L34.421,1.788V0H29.579V1.788L17.342,14.026H14.658L2.421,1.788V0H0V1.974H1.342L13.579,14.212v3.576L1.342,30.027H0v3.947H1.342L13.579,46.212v3.576L1.342,62.027H0v3.948H1.342L13.579,78.213v3.576L1.342,94.027H0v3.948H1.342l12.237,12.238v3.576L1.342,126.027H0V128H2.421v-1.787l12.237-12.238h2.684l12.237,12.238V128h4.842v-1.787l12.237-12.238h2.684l12.237,12.238V128h4.842v-1.787l12.237-12.238h2.684l12.237,12.238V128h4.842v-1.787l12.237-12.238h2.684l12.237,12.238V128H128v-1.973h-1.342l-12.237-12.238v-3.576l12.237-12.238H128V94.027h-1.342L114.421,81.789V78.213l12.237-12.238H128V62.027h-1.342L114.421,49.789V46.213l12.237-12.238H128V30.026h-1.342L114.421,17.788V14.212L126.658,1.974H128V0ZM82.421,14.212,94.658,1.974h2.684l12.237,12.238v3.576L97.342,30.027H94.658L82.421,17.788ZM62.658,94.027,50.421,81.789V78.213L62.658,65.975h2.684L77.579,78.213v3.576L65.342,94.027H62.658ZM32,62.027H30.658L18.421,49.789V46.213L30.658,33.975h2.684L45.579,46.213v3.576L33.342,62.027Zm0,3.947h1.342L45.579,78.212v3.576L33.342,94.027H30.658L18.421,81.789V78.213L30.658,65.975H32Zm2.421-.185V62.213L46.658,49.975h2.684L61.579,62.213v3.576L49.342,78.027H46.658ZM65.342,33.974,77.579,46.212v3.576L65.342,62.027H62.658L50.421,49.789V46.213L62.658,33.975h2.684Zm1.079,31.815V62.213L78.658,49.975h2.684L93.579,62.213v3.576L81.342,78.027H78.658Zm16,12.424L94.658,65.975h2.684l12.237,12.238v3.576L97.342,94.027H94.658L82.421,81.789ZM96,62.027H94.658L82.421,49.789V46.213L94.658,33.975h2.684l12.237,12.238v3.576L97.342,62.027ZM81.342,17.974,93.579,30.212v3.576L81.342,46.027H78.658L66.421,33.788V30.212L78.658,17.974h2.684ZM50.421,14.212,62.658,1.974h2.684L77.579,14.212v3.576L65.342,30.027H62.658L50.421,17.788Zm-1.079,3.762L61.579,30.212v3.576L49.342,46.027H46.658L34.421,33.788V30.212L46.658,17.974h2.684ZM18.421,14.212,30.658,1.974h2.684L45.579,14.212v3.576L33.342,30.027H30.658L18.421,17.788Zm-16,19.576V30.212L14.658,17.974h2.684L29.579,30.212v3.576L17.342,46.027H14.658Zm0,32V62.213L14.658,49.975h2.684L29.579,62.213v3.576L17.342,78.027H14.658Zm12.237,44.238L2.421,97.789V94.213L14.658,81.975h2.684L29.579,94.213v3.576L17.342,110.027Zm30.921,3.762L33.342,126.027H30.658L18.421,113.789v-3.576L30.658,97.975h2.684l12.237,12.238Zm1.079-3.762L34.421,97.789V94.213L46.658,81.975h2.684L61.579,94.213v3.576L49.342,110.027Zm30.921,3.762L65.342,126.027H62.658L50.421,113.789v-3.576L62.658,97.975h2.684l12.237,12.238Zm1.079-3.762L66.421,97.789V94.213L78.658,81.975h2.684L93.579,94.213v3.576L81.342,110.027Zm30.921,3.762L97.342,126.027H94.658L82.421,113.789v-3.576L94.658,97.975h2.684l12.237,12.238Zm16-19.576v3.576l-12.237,12.238h-2.684L98.421,97.789V94.213l12.237-12.238h2.684Zm0-32v3.576L113.342,78.026h-2.684L98.421,65.789V62.213l12.237-12.238h2.684Zm0-32v3.576L113.342,46.026h-2.684L98.421,33.788V30.212l12.237-12.238h2.684Z" transform="translate(1429 750)" fill="#111"/>
  </g>
</svg>
